<svg width="1200" height="520" viewBox="0 0 1200 520" fill="none" xmlns="http://www.w3.org/2000/svg">
  <rect width="1200" height="520" rx="28" fill="#111827"/>
  <rect x="36" y="36" width="168" height="40" rx="20" fill="#2A1D4A"/>
  <text x="120" y="61" fill="#C4B5FD" font-family="Segoe UI, Apple SD Gothic Neo, Noto Sans KR, sans-serif" font-size="20" font-weight="700" text-anchor="middle">COMPETITION</text>
  <text x="52" y="140" fill="white" font-family="Segoe UI, Apple SD Gothic Neo, Noto Sans KR, sans-serif" font-size="60" font-weight="700">Hand Bone Segmentation</text>
  <text x="52" y="188" fill="#9CA3AF" font-family="Segoe UI, Apple SD Gothic Neo, Noto Sans KR, sans-serif" font-size="28" font-weight="500">Validation redesign under domain shift</text>

  <rect x="52" y="244" width="284" height="74" rx="18" fill="#151E2E" stroke="#243041"/>
  <text x="80" y="277" fill="#C4B5FD" font-family="Segoe UI, Apple SD Gothic Neo, Noto Sans KR, sans-serif" font-size="22" font-weight="700">Dice</text>
  <text x="80" y="303" fill="white" font-family="Segoe UI, Apple SD Gothic Neo, Noto Sans KR, sans-serif" font-size="28" font-weight="700">0.9071 -&gt; 0.9546</text>

  <rect x="360" y="244" width="250" height="74" rx="18" fill="#151E2E" stroke="#243041"/>
  <text x="388" y="277" fill="#C4B5FD" font-family="Segoe UI, Apple SD Gothic Neo, Noto Sans KR, sans-serif" font-size="22" font-weight="700">Rank</text>
  <text x="388" y="303" fill="white" font-family="Segoe UI, Apple SD Gothic Neo, Noto Sans KR, sans-serif" font-size="28" font-weight="700">Private #7</text>

  <rect x="634" y="244" width="514" height="74" rx="18" fill="#151E2E" stroke="#243041"/>
  <text x="662" y="277" fill="#C4B5FD" font-family="Segoe UI, Apple SD Gothic Neo, Noto Sans KR, sans-serif" font-size="22" font-weight="700">Boundary Error</text>
  <text x="662" y="303" fill="white" font-family="Segoe UI, Apple SD Gothic Neo, Noto Sans KR, sans-serif" font-size="28" font-weight="700">-15.92%</text>

  <text x="52" y="386" fill="#E5E7EB" font-family="Segoe UI, Apple SD Gothic Neo, Noto Sans KR, sans-serif" font-size="26" font-weight="600">UNet++ · SegFormer · Hausdorff Loss · FP16 · Gradient Accumulation</text>
  <text x="52" y="440" fill="#6B7280" font-family="Segoe UI, Apple SD Gothic Neo, Noto Sans KR, sans-serif" font-size="22" font-weight="500">EDA-driven problem definition · trustworthy validation score · post-processing design</text>

  <path d="M1040 108C1016 108 998 126 998 150V234C998 250 1012 264 1028 264H1092C1108 264 1122 250 1122 234V150C1122 126 1104 108 1080 108" stroke="#A78BFA" stroke-width="10" stroke-linecap="round"/>
  <path d="M1040 108V78C1040 60 1054 46 1072 46C1090 46 1104 60 1104 78V108" stroke="#DDD6FE" stroke-width="10" stroke-linecap="round"/>
  <circle cx="1044" cy="156" r="10" fill="#A78BFA"/>
  <circle cx="1080" cy="140" r="10" fill="#A78BFA"/>
  <circle cx="1112" cy="168" r="10" fill="#A78BFA"/>
</svg>
